<svg width="108" height="109" viewBox="0 0 108 109" fill="none" xmlns="http://www.w3.org/2000/svg">
<g filter="url(#filter0_d_1_1774)">
<rect x="22" y="16.3301" width="64" height="64" rx="16" fill="white" shape-rendering="crispEdges"/>
<g clip-path="url(#clip0_1_1774)">
<g clip-path="url(#clip1_1_1774)">
<g clip-path="url(#clip2_1_1774)">
<mask id="mask0_1_1774" style="mask-type:luminance" maskUnits="userSpaceOnUse" x="36" y="31" width="36" height="37">
<path d="M72 31.5503H36V67.5503H72V31.5503Z" fill="white"/>
</mask>
<g mask="url(#mask0_1_1774)">
<path d="M61.7205 51.333L54.6764 53.1646C54.2411 53.2778 53.7843 53.2801 53.3479 53.1713L45.9168 51.3183C44.7384 51.0244 43.9114 49.9659 43.9114 48.7513V40.6327C43.9113 35.6166 47.9777 31.5503 52.9938 31.5503H54.6179C59.634 31.5503 63.7003 35.6166 63.7003 40.6327V48.7726C63.7003 49.9773 62.8864 51.0298 61.7205 51.333Z" fill="#FD9727"/>
<path d="M54.6179 31.5503H52.9938C52.5858 31.5503 52.1843 31.5776 51.7905 31.6297C56.2378 32.2185 59.6697 36.0246 59.6697 40.6327V48.7726C59.6697 49.9773 58.8559 51.0298 57.6899 51.333L51.9556 52.8241L53.3479 53.1713C53.7844 53.2801 54.2411 53.2778 54.6765 53.1646L61.7206 51.333C62.8865 51.0298 63.7004 49.9773 63.7004 48.7725V40.6327C63.7003 35.6166 59.634 31.5503 54.6179 31.5503Z" fill="#FF6D3A"/>
<path d="M44.3317 46.3026H46.259V41.5972H44.3317C43.7655 41.5972 43.3065 42.0562 43.3065 42.6224V45.2773C43.3065 45.8436 43.7655 46.3026 44.3317 46.3026Z" fill="#3D6687"/>
<path d="M63.6682 46.3026H61.741V41.5972H63.6682C64.2345 41.5972 64.6935 42.0562 64.6935 42.6224V45.2773C64.6935 45.8436 64.2345 46.3026 63.6682 46.3026Z" fill="#3D6687"/>
<path d="M58.3518 54.5129C57.6778 54.3774 57.1928 53.7853 57.1928 53.0978V49.8442H54H50.8073V53.0978C50.8073 53.7853 50.3223 54.3774 49.6483 54.5129L48.8704 54.6693V59.8941H54H59.1297V54.6693L58.3518 54.5129Z" fill="#FED9A8"/>
<path d="M64.9993 56.2669L58.5954 54.2702C58.3966 54.2082 58.1798 54.2585 58.0287 54.4017L54 58.2196L49.9713 54.4018C49.8201 54.2586 49.6033 54.2082 49.4046 54.2702L43.0007 56.267C40.1614 57.1029 38.212 59.7091 38.212 62.6688V66.9351C38.212 67.2747 38.4874 67.5501 38.827 67.5501H69.173C69.5126 67.5501 69.788 67.2747 69.788 66.9351V62.6688C69.7879 59.709 67.8385 57.1028 64.9993 56.2669Z" fill="#FF4C4C"/>
<path d="M64.9993 56.2669L58.5954 54.2702C58.3966 54.2082 58.1799 54.2585 58.0287 54.4017L57.2756 55.1154L60.9687 56.2669C63.8079 57.1028 65.7573 59.709 65.7573 62.6688V67.55H69.173C69.5127 67.55 69.788 67.2746 69.788 66.935V62.6688C69.7879 59.709 67.8385 57.1028 64.9993 56.2669Z" fill="#EF2929"/>
<path d="M53.9999 52.5494C49.6046 52.5494 46.0415 48.9863 46.0415 44.591V42.3544C46.0415 37.9591 49.6047 34.396 53.9999 34.396C58.3952 34.396 61.9584 37.9591 61.9584 42.3544V44.591C61.9584 48.9864 58.3953 52.5494 53.9999 52.5494Z" fill="#FED9A8"/>
<path d="M57.9278 35.4316V44.591C57.9278 48.29 55.4041 51.3994 51.9846 52.2918C52.6283 52.4597 53.3036 52.5495 53.9999 52.5495C58.3953 52.5495 61.9584 48.9863 61.9584 44.591V42.3544C61.9584 39.3876 60.3348 36.8003 57.9278 35.4316Z" fill="#F4C892"/>
<path d="M49.9712 54.4022L53.9999 58.2201L51.5154 59.0665C50.9066 59.2738 50.2329 59.0936 49.809 58.6099L46.736 55.1027L49.4045 54.2707C49.6034 54.2087 49.8201 54.259 49.9712 54.4022Z" fill="#D4145A"/>
<path d="M58.0286 54.4022L53.9999 58.2201L56.2517 58.9872C57.0013 59.2425 57.8309 59.0205 58.3528 58.425L61.2638 55.1027L58.5953 54.2707C58.3964 54.2087 58.1797 54.259 58.0286 54.4022Z" fill="#D4145A"/>
<path d="M49.2461 64.3924H45.1499C44.9224 64.3924 44.738 64.208 44.738 63.9806V62.1662C44.738 61.9388 44.9224 61.7544 45.1499 61.7544H49.2461C49.4736 61.7544 49.6579 61.9388 49.6579 62.1662V63.9806C49.658 64.208 49.4736 64.3924 49.2461 64.3924Z" fill="#EDA558"/>
<path d="M63.7004 42.3103C63.7004 42.3103 60.2667 42.0377 59.0918 38.8794C59.0918 38.8794 50.7915 45.5247 43.9114 42.3103V40.6327C43.9114 35.6166 47.9778 31.5503 52.9938 31.5503H54.618C59.6341 31.5503 63.7004 35.6166 63.7004 40.6327V42.3103Z" fill="#FD9727"/>
<path d="M54.6179 31.5503H52.9938C52.5858 31.5503 52.1843 31.5776 51.7905 31.6297C56.0192 32.1895 59.3296 35.6582 59.6448 39.9593C61.0928 42.1029 63.7003 42.3103 63.7003 42.3103V40.6327C63.7003 35.6166 59.634 31.5503 54.6179 31.5503Z" fill="#FF6D3A"/>
<path d="M65.692 61.4917C65.3917 61.4917 65.1482 61.7352 65.1482 62.0355V67.5501H66.2357V62.0355C66.2358 61.7351 65.9923 61.4917 65.692 61.4917Z" fill="#D4145A"/>
<path d="M42.308 61.4917C42.0077 61.4917 41.7642 61.7352 41.7642 62.0355V67.5501H42.8517V62.0355C42.8517 61.7351 42.6083 61.4917 42.308 61.4917Z" fill="#D4145A"/>
<path d="M62.1801 46.3027V47.2946C62.1801 48.1496 61.5685 48.8752 60.7257 49.0196L55.2538 49.958C54.9581 50.0086 54.7594 50.2895 54.8101 50.5853C54.8555 50.8499 55.0852 51.0368 55.3449 51.0368C55.3755 51.0368 55.4063 51.0343 55.4374 51.0289L60.9093 50.0906C62.2752 49.8563 63.2666 48.6805 63.2666 47.2946V46.3027H62.1801Z" fill="#3D6687"/>
<path d="M55.4188 51.5598C54.9162 51.5598 54.4717 51.1982 54.3838 50.6861C54.2857 50.1139 54.6701 49.5704 55.2423 49.4722L57.015 49.1682C57.5873 49.0699 58.1307 49.4544 58.2289 50.0266C58.327 50.5988 57.9426 51.1424 57.3704 51.2405L55.5977 51.5445C55.5376 51.5548 55.4777 51.5598 55.4188 51.5598Z" fill="#D4145A"/>
</g>
</g>
</g>
</g>
</g>
<defs>
<filter id="filter0_d_1_1774" x="0" y="0.330078" width="108" height="108" filterUnits="userSpaceOnUse" color-interpolation-filters="sRGB">
<feFlood flood-opacity="0" result="BackgroundImageFix"/>
<feColorMatrix in="SourceAlpha" type="matrix" values="0 0 0 0 0 0 0 0 0 0 0 0 0 0 0 0 0 0 127 0" result="hardAlpha"/>
<feOffset dy="6"/>
<feGaussianBlur stdDeviation="11"/>
<feComposite in2="hardAlpha" operator="out"/>
<feColorMatrix type="matrix" values="0 0 0 0 0 0 0 0 0 0 0 0 0 0 0 0 0 0 0.09 0"/>
<feBlend mode="normal" in2="BackgroundImageFix" result="effect1_dropShadow_1_1774"/>
<feBlend mode="normal" in="SourceGraphic" in2="effect1_dropShadow_1_1774" result="shape"/>
</filter>
<clipPath id="clip0_1_1774">
<rect width="36" height="36" fill="white" transform="translate(36 31.5503)"/>
</clipPath>
<clipPath id="clip1_1_1774">
<rect width="36" height="36" fill="white" transform="translate(36 31.5503)"/>
</clipPath>
<clipPath id="clip2_1_1774">
<rect width="36" height="36" fill="white" transform="translate(36 31.5503)"/>
</clipPath>
</defs>
</svg>
