<svg width="108" height="109" viewBox="0 0 108 109" fill="none" xmlns="http://www.w3.org/2000/svg">
<g filter="url(#filter0_d_1_1807)">
<rect x="22" y="16.3301" width="64" height="64" rx="16" fill="white" shape-rendering="crispEdges"/>
<g clip-path="url(#clip0_1_1807)">
<g clip-path="url(#clip1_1_1807)">
<g clip-path="url(#clip2_1_1807)">
<path fill-rule="evenodd" clip-rule="evenodd" d="M46.3683 33.2393H61.6317C62.9832 33.2393 64.0892 34.3453 64.0892 35.6967V50.9601C64.0892 52.3115 62.9832 53.4175 61.6317 53.4175H46.3683C45.0169 53.4175 43.9109 52.3115 43.9109 50.9601V35.6967C43.9109 34.3453 45.0169 33.2393 46.3683 33.2393Z" fill="#FFD164"/>
<path fill-rule="evenodd" clip-rule="evenodd" d="M50.7331 33.2393H57.2666V41.2654C57.2666 41.475 57.159 41.6543 56.9734 41.7534C56.7899 41.8532 56.581 41.8448 56.4053 41.7316L54.3043 40.3584C54.1152 40.2347 53.8839 40.2347 53.6947 40.3584L51.5938 41.7316C51.4187 41.8455 51.2092 41.8532 51.0256 41.7534C50.84 41.6536 50.7324 41.4743 50.7324 41.2654L50.7331 33.2393Z" fill="#FF4155"/>
<path fill-rule="evenodd" clip-rule="evenodd" d="M46.3683 33.2393H48.1739C46.8225 33.2393 45.7165 34.3453 45.7165 35.6967V50.9601C45.7165 52.3115 46.8225 53.4175 48.1739 53.4175H46.3683C45.0169 53.4175 43.9109 52.3115 43.9109 50.9601V35.6967C43.9109 34.3453 45.0169 33.2393 46.3683 33.2393Z" fill="#E6BC5A"/>
<path fill-rule="evenodd" clip-rule="evenodd" d="M38.8604 59.9869L40.7834 60.3996C48.2478 61.1907 52.1684 69.6654 63.8937 61.1091L68.4141 60.1423L66.4868 50.1966L62.7856 50.9876C55.7122 46.9017 50.0555 49.369 44.8798 50.9159L42.9005 50.4933L41.0731 50.1024L38.8604 59.9869Z" fill="#FFDAA2"/>
<path fill-rule="evenodd" clip-rule="evenodd" d="M66.4868 50.1963L62.7855 50.9874C59.658 49.0917 55.8893 48.1967 51.0265 49.1677L47.3034 52.6376C44.5092 55.2209 49.2989 55.5295 52.4236 52.4147C54.7636 56.8852 60.7387 57.023 63.8936 61.1088L68.414 60.142L66.4868 50.1963Z" fill="#FBBD80"/>
<path fill-rule="evenodd" clip-rule="evenodd" d="M45.607 62.5615L47.4723 60.9155C48.0566 60.4015 48.1143 59.5001 47.5982 58.9165C47.0821 58.3322 46.1828 58.2745 45.5971 58.7906L43.7317 60.4352C43.1474 60.9513 43.0919 61.8506 43.6059 62.4363C44.1227 63.0199 45.0234 63.0762 45.607 62.5615Z" fill="#FBBD80"/>
<path fill-rule="evenodd" clip-rule="evenodd" d="M48.9058 63.4309L50.7712 61.7863C51.3555 61.2702 51.4132 60.3709 50.8971 59.7852C50.381 59.2009 49.4817 59.1453 48.896 59.6593L47.0306 61.3053C46.4463 61.8193 46.3907 62.7207 46.9047 63.3043C47.4208 63.8893 48.3215 63.947 48.9058 63.4309Z" fill="#FBBD80"/>
<path fill-rule="evenodd" clip-rule="evenodd" d="M51.5786 64.8515L53.444 63.207C54.0283 62.693 54.0859 61.7916 53.5698 61.208C53.0559 60.6223 52.1544 60.566 51.5709 61.0821L49.7055 62.7267C49.1198 63.2407 49.0635 64.142 49.5796 64.7256C50.0936 65.312 50.9943 65.3683 51.5786 64.8515Z" fill="#FBBD80"/>
<path fill-rule="evenodd" clip-rule="evenodd" d="M53.7631 62.9264L53.247 63.3828C52.6613 63.8989 52.605 64.7982 53.1197 65.3817C53.6358 65.9674 54.5365 66.0237 55.1208 65.509L55.639 65.0506C56.2233 64.5366 56.281 63.6352 55.7649 63.0516C55.2474 62.468 54.3488 62.4103 53.7631 62.9264Z" fill="#FBBD80"/>
<path fill-rule="evenodd" clip-rule="evenodd" d="M36.0017 59.3765L38.1187 49.4702L42.9027 50.4925L40.7857 60.3989L36.0017 59.3765Z" fill="#0593FC"/>
<path fill-rule="evenodd" clip-rule="evenodd" d="M65.1018 50.496L69.8858 49.4736L72.0028 59.38L67.2188 60.4024L65.1018 50.496Z" fill="#0593FC"/>
<path fill-rule="evenodd" clip-rule="evenodd" d="M38.1171 49.4712L39.1198 49.687L37.0027 59.5905L36 59.3775L38.1171 49.4712Z" fill="#0584E3"/>
</g>
</g>
</g>
</g>
<defs>
<filter id="filter0_d_1_1807" x="0" y="0.330078" width="108" height="108" filterUnits="userSpaceOnUse" color-interpolation-filters="sRGB">
<feFlood flood-opacity="0" result="BackgroundImageFix"/>
<feColorMatrix in="SourceAlpha" type="matrix" values="0 0 0 0 0 0 0 0 0 0 0 0 0 0 0 0 0 0 127 0" result="hardAlpha"/>
<feOffset dy="6"/>
<feGaussianBlur stdDeviation="11"/>
<feComposite in2="hardAlpha" operator="out"/>
<feColorMatrix type="matrix" values="0 0 0 0 0 0 0 0 0 0 0 0 0 0 0 0 0 0 0.09 0"/>
<feBlend mode="normal" in2="BackgroundImageFix" result="effect1_dropShadow_1_1807"/>
<feBlend mode="normal" in="SourceGraphic" in2="effect1_dropShadow_1_1807" result="shape"/>
</filter>
<clipPath id="clip0_1_1807">
<rect width="36" height="34" fill="white" transform="translate(36 32.5503)"/>
</clipPath>
<clipPath id="clip1_1_1807">
<rect width="36" height="34" fill="white" transform="translate(36 32.5503)"/>
</clipPath>
<clipPath id="clip2_1_1807">
<rect width="36" height="34" fill="white" transform="translate(36 32.5503)"/>
</clipPath>
</defs>
</svg>
