<svg width="89" height="33" viewBox="0 0 89 33" fill="none" xmlns="http://www.w3.org/2000/svg">
<path d="M17.35 18.88C17.5687 19.044 17.678 19.208 17.678 19.372C17.678 19.4813 17.6507 19.5633 17.596 19.618L16.694 20.93L8.904 31.016L8.576 31.344C8.248 31.7267 7.838 32.082 7.346 32.41C6.90867 32.738 6.38933 32.7653 5.788 32.492C5.46 32.2733 5.296 31.918 5.296 31.426C5.296 30.8793 5.35067 30.3053 5.46 29.704V29.54C5.67867 28.6653 5.92467 27.8727 6.198 27.162C6.526 26.4513 6.69 26.0687 6.69 26.014C6.79933 25.7407 6.88133 25.4673 6.936 25.194C7.04533 24.9207 7.15467 24.6473 7.264 24.374C7.48267 23.6633 7.51 22.9253 7.346 22.16C7.182 21.6133 6.854 21.258 6.362 21.094C6.08867 21.0393 5.84267 21.012 5.624 21.012C5.40533 20.9573 5.18667 20.8753 4.968 20.766C4.58533 20.6567 4.066 20.4653 3.41 20.192C2.80867 19.864 2.28933 19.3993 1.852 18.798C1.30533 18.0327 1.032 17.1033 1.032 16.01C0.922667 14.534 1.032 13.1127 1.36 11.746C1.688 10.3247 2.23467 8.90333 3 7.482C3.54667 6.44333 4.17533 5.65067 4.886 5.104C5.214 4.776 5.65133 4.55733 6.198 4.448C7.61933 4.284 8.412 4.91267 8.576 6.334C8.63067 6.88067 8.60333 7.42733 8.494 7.974C8.38467 8.52067 8.27533 9.09467 8.166 9.696C7.89267 11.172 7.51 12.6207 7.018 14.042C6.58067 15.4633 6.06133 16.8847 5.46 18.306C5.40533 18.4153 5.32333 18.634 5.214 18.962C5.32333 19.126 5.48733 19.2353 5.706 19.29C5.92467 19.3447 6.116 19.4267 6.28 19.536C6.55333 19.5907 6.79933 19.6453 7.018 19.7C7.29133 19.7547 7.56467 19.8093 7.838 19.864C8.76733 20.1373 9.45067 20.602 9.888 21.258C10.38 21.8593 10.4893 22.8433 10.216 24.21C10.1067 24.866 9.91533 25.522 9.642 26.178C9.36867 26.834 9.09533 27.4627 8.822 28.064C8.71267 28.3373 8.60333 28.6107 8.494 28.884C8.38467 29.1027 8.27533 29.3487 8.166 29.622L16.448 19.044L16.612 18.88C16.6667 18.8253 16.858 18.798 17.186 18.798C17.2953 18.798 17.35 18.8253 17.35 18.88ZM4.312 15.928C4.53067 15.3267 4.74933 14.7527 4.968 14.206C5.18667 13.6047 5.378 13.0033 5.542 12.402C5.81533 11.4727 6.034 10.598 6.198 9.778C6.41667 8.90333 6.55333 8.00133 6.608 7.072C6.608 6.96266 6.58067 6.85333 6.526 6.744C6.526 6.58 6.526 6.416 6.526 6.252C6.034 6.908 5.59667 7.70067 5.214 8.63C4.83133 9.55933 4.53067 10.516 4.312 11.5C4.09333 12.4293 3.95667 13.3587 3.902 14.288C3.84733 15.1627 3.902 15.9007 4.066 16.502C4.12067 16.3927 4.17533 16.3107 4.23 16.256C4.28467 16.1467 4.312 16.0373 4.312 15.928ZM25.9651 19.126C26.0745 19.3447 26.0745 19.6727 25.9651 20.11C25.7465 20.5473 25.5825 20.848 25.4731 21.012C25.3638 21.176 25.2271 21.3673 25.0631 21.586C24.9538 21.75 24.8445 21.914 24.7351 22.078C24.5711 22.3513 24.4071 22.5973 24.2431 22.816C24.0791 22.98 23.9151 23.1713 23.7511 23.39C23.6418 23.554 23.4505 23.7727 23.1771 24.046C23.0678 24.1553 22.9858 24.2647 22.9311 24.374L22.8491 24.456C22.7398 24.5653 22.6851 24.62 22.6851 24.62L21.7011 25.604C21.4278 25.8773 21.0998 26.178 20.7171 26.506C20.3345 26.834 19.9245 27.1073 19.4871 27.326H19.4051C18.9678 27.5993 18.5031 27.736 18.0111 27.736C17.9565 27.736 17.9018 27.7633 17.8471 27.818C17.7925 27.818 17.7378 27.818 17.6831 27.818V27.736H17.6011C16.5625 27.736 15.7698 27.2987 15.2231 26.424C14.9498 25.8227 14.8131 25.1667 14.8131 24.456C14.8131 23.7453 14.8131 23.2533 14.8131 22.98C15.0865 21.34 15.6331 19.9187 16.4531 18.716C17.3278 17.3493 18.5031 16.584 19.9791 16.42C20.2525 16.3107 20.5258 16.3107 20.7991 16.42C21.3458 16.584 21.6465 16.8573 21.7011 17.24C21.7558 17.568 21.7558 17.8687 21.7011 18.142C21.4278 18.9073 21.0998 19.618 20.7171 20.274C20.3345 20.93 19.8151 21.4767 19.1591 21.914C18.8858 22.078 18.6398 22.2147 18.4211 22.324C18.2025 22.4333 17.9565 22.5427 17.6831 22.652C17.5738 23.0893 17.4645 23.554 17.3551 24.046C17.3005 24.538 17.3278 25.0027 17.4371 25.44C17.4918 25.5493 17.5191 25.6313 17.5191 25.686C17.5191 25.7407 17.5465 25.8227 17.6011 25.932C17.8745 26.5333 18.3391 26.6153 18.9951 26.178C19.7058 25.686 20.4165 25.0573 21.1271 24.292C21.8925 23.472 22.5485 22.6793 23.0951 21.914C23.6965 21.094 24.0245 20.6293 24.0791 20.52C24.1338 20.4107 24.1611 20.356 24.1611 20.356C24.2158 20.3013 24.2705 20.2193 24.3251 20.11L25.0631 18.962C25.1178 18.9073 25.1998 18.8527 25.3091 18.798C25.5825 18.798 25.8011 18.9073 25.9651 19.126ZM19.7331 18.388C19.4598 18.6613 19.1591 19.0987 18.8311 19.7C18.5031 20.2467 18.2845 20.7387 18.1751 21.176C18.6125 20.9027 18.9678 20.4927 19.2411 19.946C19.5691 19.3993 19.7331 18.88 19.7331 18.388ZM34.6956 19.208C34.8596 19.372 34.9416 19.618 34.9416 19.946C34.8869 20.3833 34.7229 20.7933 34.4496 21.176C34.2309 21.5587 34.0122 21.9413 33.7936 22.324C33.5202 22.7613 33.2469 23.1987 32.9736 23.636C32.7549 24.0187 32.5089 24.4287 32.2356 24.866C31.9076 25.3033 31.5796 25.7407 31.2516 26.178C30.9236 26.5607 30.5682 26.9433 30.1856 27.326C30.0762 27.4353 29.9669 27.5173 29.8576 27.572C29.8029 27.6267 29.7209 27.7087 29.6116 27.818L28.8736 28.31C28.4362 28.5287 28.0536 28.638 27.7256 28.638H27.3976H27.0696H26.9876C26.8782 28.638 26.6596 28.5833 26.3316 28.474C26.2769 28.474 26.2496 28.474 26.2496 28.474C26.2496 28.4193 26.2222 28.392 26.1676 28.392C25.7302 28.1733 25.4022 27.8727 25.1836 27.49C24.9649 27.0527 24.8009 26.6153 24.6916 26.178C24.5822 25.686 24.5276 25.2213 24.5276 24.784C24.4729 24.3467 24.4456 23.964 24.4456 23.636C24.4456 23.2533 24.4729 22.816 24.5276 22.324C24.5822 21.832 24.6369 21.3673 24.6916 20.93C24.7462 20.4927 24.8009 20.1373 24.8556 19.864C24.9102 19.536 24.9376 19.372 24.9376 19.372C25.2109 17.4587 25.5662 15.6 26.0036 13.796C26.4409 11.9373 26.9602 10.0787 27.5616 8.22L29.7756 1.332C29.7756 1.27733 29.8029 1.22266 29.8576 1.168C29.9122 1.05867 30.0216 0.949332 30.1856 0.839998C30.3496 0.675998 30.6776 0.648665 31.1696 0.757999C31.7709 0.867333 32.1536 1.05867 32.3176 1.332C32.4816 1.55067 32.5362 1.742 32.4816 1.906C32.0442 3.49133 31.6069 5.04933 31.1696 6.58C30.7869 8.11067 30.3769 9.66867 29.9396 11.254C29.3382 13.2767 28.8462 15.2993 28.4636 17.322C28.1356 19.3447 27.8349 21.3947 27.5616 23.472C27.5616 24.0187 27.5342 24.4287 27.4796 24.702V25.768C27.4796 26.0413 27.5342 26.2873 27.6436 26.506C27.8076 26.67 28.1356 26.588 28.6276 26.26C28.9009 26.0413 29.1196 25.85 29.2836 25.686C29.5022 25.4673 29.6662 25.3033 29.7756 25.194C29.8849 25.0847 29.9669 24.9753 30.0216 24.866C30.1309 24.7567 30.2129 24.6747 30.2676 24.62C30.8142 23.964 31.2789 23.2807 31.6616 22.57C32.0442 21.8593 32.4542 21.1213 32.8916 20.356L33.5476 19.044C33.6022 18.9347 33.7116 18.8527 33.8756 18.798C34.0942 18.6887 34.3676 18.8253 34.6956 19.208ZM45.3998 18.88C45.5091 18.9347 45.6458 19.044 45.8098 19.208C46.0284 19.372 46.0558 19.5633 45.8918 19.782C45.8371 19.8913 45.6458 20.11 45.3178 20.438C44.9898 20.7113 44.5524 21.0393 44.0058 21.422C43.4591 21.8047 42.8578 22.1873 42.2018 22.57C41.5458 22.9527 40.8624 23.226 40.1518 23.39C40.1518 23.4993 40.1244 23.5813 40.0698 23.636C40.0698 23.636 40.0698 23.6907 40.0698 23.8C40.0698 23.8 40.0424 23.8273 39.9878 23.882C39.6598 25.0847 39.0311 26.2327 38.1018 27.326C37.8284 27.5993 37.5551 27.8453 37.2818 28.064C37.0084 28.2827 36.7078 28.474 36.3798 28.638C35.6144 28.966 34.7944 29.0753 33.9198 28.966C32.6078 28.802 31.7878 28.0367 31.4598 26.67C31.2411 25.7953 31.2684 24.7567 31.5418 23.554C31.8151 22.4607 32.1704 21.422 32.6078 20.438C33.0451 19.454 33.5918 18.4973 34.2478 17.568C34.4118 17.3493 34.5758 17.158 34.7398 16.994C34.9038 16.7753 35.0678 16.584 35.2318 16.42C35.7238 16.0373 36.2704 15.928 36.8718 16.092C37.3638 16.256 37.4458 16.502 37.1178 16.83C37.0084 16.994 36.8991 17.158 36.7898 17.322C36.6804 17.486 36.5711 17.65 36.4618 17.814C36.5711 17.814 36.6258 17.814 36.6258 17.814C36.6804 17.7593 36.7351 17.732 36.7898 17.732C37.9924 17.1853 38.9491 17.4587 39.6598 18.552C39.9878 19.0987 40.2064 19.8093 40.3158 20.684C40.3158 20.848 40.3158 21.012 40.3158 21.176C40.3704 21.34 40.3978 21.504 40.3978 21.668V21.832C40.9991 21.6133 41.5458 21.34 42.0378 21.012C42.5844 20.684 43.0764 20.356 43.5138 20.028C44.0058 19.6453 44.4704 19.2353 44.9078 18.798H45.0718C45.1264 18.798 45.1811 18.8253 45.2358 18.88C45.2904 18.88 45.3451 18.88 45.3998 18.88ZM34.6578 27.9C35.6964 27.4627 36.4618 26.8613 36.9538 26.096C37.4458 25.276 37.8558 24.4013 38.1838 23.472C37.4731 23.2533 36.8718 22.9527 36.3798 22.57C35.9424 22.2967 35.5871 21.914 35.3138 21.422C35.0404 20.93 35.0404 20.3287 35.3138 19.618L34.9858 20.602C34.8764 20.8753 34.7671 21.1487 34.6578 21.422C34.6031 21.6953 34.5484 21.914 34.4938 22.078C34.3844 22.406 34.2751 22.734 34.1658 23.062C34.1111 23.39 34.0291 23.718 33.9198 24.046C33.8104 24.4833 33.7284 24.8933 33.6738 25.276C33.6738 25.604 33.7284 25.9867 33.8378 26.424C33.8924 26.6973 33.9744 26.9707 34.0838 27.244C34.1931 27.4627 34.3844 27.6813 34.6578 27.9ZM38.4298 22.078C38.5938 21.0393 38.5391 20.1647 38.2658 19.454C38.2111 19.2353 38.1291 19.0167 38.0198 18.798C37.8011 18.3607 37.5824 18.1147 37.3638 18.06C37.2544 18.06 37.1178 18.224 36.9538 18.552C36.8444 18.88 36.7898 19.2627 36.7898 19.7C36.7898 20.6293 37.0084 21.258 37.4458 21.586C37.8831 21.8593 38.1838 22.0233 38.3478 22.078H38.4298ZM55.1309 19.7C55.1309 20.0827 55.0215 20.438 54.8029 20.766C54.5842 21.094 54.3929 21.422 54.2289 21.75C53.9555 22.078 53.7095 22.4333 53.4909 22.816C53.2722 23.144 53.0262 23.472 52.7529 23.8C52.5889 24.0733 52.3975 24.3193 52.1789 24.538C51.9602 24.7567 51.7415 25.0027 51.5229 25.276C51.5229 25.276 51.4682 25.3033 51.3589 25.358C51.0309 25.7407 50.6482 26.0687 50.2109 26.342C49.4455 26.8887 48.5162 27.408 47.4229 27.9C46.3842 28.3373 45.3729 28.3373 44.3889 27.9C44.3342 27.8453 44.3069 27.818 44.3069 27.818C44.2522 27.818 44.1975 27.7907 44.1429 27.736C43.6509 27.4627 43.3229 27.1073 43.1589 26.67L42.9129 25.44C42.8582 24.6747 42.9402 23.9093 43.1589 23.144C43.3229 22.3787 43.4322 21.9413 43.4869 21.832C43.7055 21.2307 43.9515 20.6293 44.2249 20.028C44.4435 19.4267 44.7715 18.8253 45.2089 18.224C45.4822 17.7867 45.8102 17.404 46.1929 17.076C46.6302 16.6387 47.2862 16.42 48.1609 16.42C49.1995 16.5293 49.8555 16.8847 50.1289 17.486C50.6209 18.306 50.7029 19.1533 50.3749 20.028C50.2109 20.3013 49.9649 20.438 49.6369 20.438C49.0902 20.5473 48.6802 20.4927 48.4069 20.274C48.2975 20.1647 48.2429 20.0827 48.2429 20.028C48.2975 19.9187 48.3249 19.8093 48.3249 19.7C48.5435 19.0987 48.5709 18.5793 48.4069 18.142C48.2975 17.9233 48.2155 17.732 48.1609 17.568C48.0515 17.7867 47.8875 18.0053 47.6689 18.224C47.2315 18.88 46.8762 19.5633 46.6029 20.274C46.3842 20.93 46.1655 21.6407 45.9469 22.406C45.7829 23.0073 45.6462 23.6087 45.5369 24.21C45.4822 24.8113 45.5095 25.4127 45.6189 26.014C45.6735 26.178 45.7282 26.342 45.7829 26.506C45.8375 26.67 45.9195 26.8613 46.0289 27.08C46.0289 27.08 46.0562 27.0527 46.1109 26.998C46.1655 26.998 46.3022 26.9433 46.5209 26.834H46.6849C47.1222 26.6153 47.7235 26.26 48.4889 25.768C49.2542 25.2213 50.0742 24.4833 50.9489 23.554C51.3862 23.0073 51.7689 22.4607 52.0969 21.914C52.4795 21.3127 52.8349 20.7113 53.1629 20.11L53.8189 18.962C53.8735 18.9073 53.9555 18.8527 54.0649 18.798C54.1742 18.798 54.2835 18.8253 54.3929 18.88C54.5569 18.88 54.7209 18.962 54.8849 19.126C55.0489 19.29 55.1309 19.4813 55.1309 19.7ZM65.0836 19.126C65.1929 19.2353 65.2476 19.454 65.2476 19.782C65.2476 20.1647 65.1109 20.5473 64.8376 20.93C64.6189 21.3127 64.4276 21.668 64.2636 21.996C63.9903 22.3787 63.7169 22.7613 63.4436 23.144C63.2249 23.472 62.9789 23.8273 62.7056 24.21C62.2136 24.9207 61.5576 25.686 60.7376 26.506C60.4643 26.7247 60.1909 26.916 59.9176 27.08C59.6443 27.244 59.3709 27.3807 59.0976 27.49C58.3869 27.654 57.8129 27.4627 57.3756 26.916C57.1569 26.6973 57.0476 26.3967 57.0476 26.014C56.9383 25.358 56.9383 24.7293 57.0476 24.128L57.2116 23.062L56.9656 23.308C56.8016 23.5813 56.6376 23.8547 56.4736 24.128C56.3096 24.3467 56.1456 24.5653 55.9816 24.784C55.5443 25.3307 55.0523 25.604 54.5056 25.604C53.7949 25.7133 53.1663 25.522 52.6196 25.03C52.3463 24.7567 52.1549 24.3467 52.0456 23.8C52.0456 23.3627 52.0729 22.98 52.1276 22.652C52.1823 22.2693 52.2643 21.8867 52.3736 21.504C52.4283 21.4493 52.6743 20.93 53.1116 19.946C53.5489 18.9073 54.2323 18.0053 55.1616 17.24C55.2709 17.1307 55.3529 17.076 55.4076 17.076C55.5169 17.0213 55.6263 16.9393 55.7356 16.83C56.6649 16.338 57.5669 16.3107 58.4416 16.748C58.8789 16.9667 59.1523 17.2127 59.2616 17.486C59.3163 17.65 59.4256 17.732 59.5896 17.732C59.6989 17.732 59.7809 17.7593 59.8356 17.814C59.8903 17.814 59.9449 17.814 59.9996 17.814C60.4369 18.0327 60.6556 18.4153 60.6556 18.962L60.4096 19.946C60.2456 20.7113 60.0543 21.4767 59.8356 22.242C59.6716 23.0073 59.4803 23.7727 59.2616 24.538C59.2069 24.7567 59.1796 24.9753 59.1796 25.194C59.1796 25.358 59.1523 25.5493 59.0976 25.768C59.2069 25.7133 59.3436 25.604 59.5076 25.44C59.8903 25.112 60.2729 24.702 60.6556 24.21C61.0929 23.6633 61.4756 23.1713 61.8036 22.734C62.1316 22.242 62.4049 21.832 62.6236 21.504C62.8969 21.1213 63.0609 20.9027 63.1156 20.848C63.3343 20.4653 63.5529 20.11 63.7716 19.782C63.9903 19.3993 64.1816 19.0713 64.3456 18.798H64.5096C64.5643 18.798 64.7009 18.8527 64.9196 18.962V19.044H65.0016C65.0016 19.044 65.0289 19.0713 65.0836 19.126ZM58.2776 18.634C58.3869 18.4153 58.4416 18.306 58.4416 18.306C58.3323 18.1967 58.1956 18.0873 58.0316 17.978C57.8676 17.8687 57.7309 17.7593 57.6216 17.65C57.1843 17.8687 56.7743 18.224 56.3916 18.716C55.4623 19.9733 54.7789 21.4767 54.3416 23.226C54.3416 23.6087 54.3143 23.9093 54.2596 24.128C54.3689 24.0733 54.4509 24.046 54.5056 24.046C54.6149 23.9367 54.7243 23.8547 54.8336 23.8C55.2163 23.472 55.5443 23.1167 55.8176 22.734C56.0909 22.2967 56.3643 21.8593 56.6376 21.422C56.9109 20.9847 57.1843 20.52 57.4576 20.028C57.7309 19.536 58.0043 19.0713 58.2776 18.634ZM88.1198 6.416C88.2838 6.79867 88.1472 6.99 87.7098 6.99C87.7098 6.99 87.6005 6.99 87.3818 6.99C85.6325 6.93533 83.8558 6.93533 82.0518 6.99C80.3025 7.04467 78.5532 7.12667 76.8038 7.236C75.7652 7.29066 74.7265 7.34533 73.6878 7.4C72.7038 7.4 71.6925 7.45467 70.6538 7.564H70.1618L69.1778 11.254C68.6312 13.2767 68.1665 15.2993 67.7838 17.322C67.4012 19.3447 67.0732 21.3947 66.7998 23.472C66.7998 24.0187 66.7725 24.4287 66.7178 24.702V25.768C66.7178 26.0413 66.7725 26.2873 66.8818 26.506C67.0458 26.67 67.3738 26.588 67.8658 26.26C68.1392 26.0413 68.3578 25.85 68.5218 25.686C68.7405 25.4673 68.9045 25.3033 69.0138 25.194C69.1232 25.0847 69.2052 24.9753 69.2598 24.866C69.3692 24.7567 69.4512 24.6747 69.5058 24.62C70.0525 23.964 70.5172 23.2807 70.8998 22.57C71.2825 21.8593 71.6925 21.1213 72.1298 20.356L72.7858 19.044C72.8405 18.9347 72.9498 18.8527 73.1138 18.798C73.3325 18.6887 73.6058 18.8253 73.9338 19.208C74.0978 19.372 74.1798 19.618 74.1798 19.946C74.1252 20.3833 73.9612 20.7933 73.6878 21.176C73.4692 21.5587 73.2505 21.9413 73.0318 22.324C72.7585 22.7613 72.4852 23.1987 72.2118 23.636C71.9932 24.0187 71.7472 24.4287 71.4738 24.866C71.1458 25.3033 70.8178 25.7407 70.4898 26.178C70.1618 26.5607 69.8065 26.9433 69.4238 27.326C69.3145 27.4353 69.2052 27.5173 69.0958 27.572C69.0412 27.6267 68.9592 27.7087 68.8498 27.818L68.1118 28.31C67.6745 28.5287 67.2918 28.638 66.9638 28.638H66.6358H66.3078H66.2258C66.1165 28.638 65.8978 28.5833 65.5698 28.474C65.5698 28.474 65.5152 28.4467 65.4058 28.392C64.9685 28.1733 64.6405 27.8727 64.4218 27.49C64.2032 27.0527 64.0392 26.6153 63.9298 26.178C63.8205 25.686 63.7658 25.2213 63.7658 24.784C63.7112 24.3467 63.6838 23.964 63.6838 23.636C63.6838 23.308 63.7112 22.898 63.7658 22.406C63.8205 21.914 63.8752 21.4493 63.9298 21.012C63.9845 20.4653 64.0665 19.946 64.1758 19.454V19.372C64.4492 17.4587 64.8045 15.6 65.2418 13.796C65.6792 11.9373 66.1985 10.0787 66.7998 8.22C66.7998 8.16533 66.8545 8.02867 66.9638 7.81H66.6358C65.7065 7.91933 64.7772 8.02867 63.8478 8.138C62.9185 8.19267 61.9892 8.27467 61.0598 8.384C59.6932 8.548 58.3538 8.73933 57.0418 8.958C55.6752 9.17667 54.3085 9.39533 52.9418 9.614C52.6138 9.66867 52.2858 9.72333 51.9578 9.778C51.6298 9.778 51.3292 9.64133 51.0558 9.368C50.7825 9.31333 50.6185 9.14933 50.5638 8.876C50.3998 8.60267 50.5092 8.41133 50.8918 8.302C52.1492 8.08333 53.4338 7.86467 54.7458 7.646C56.0032 7.42733 57.2605 7.20866 58.5178 6.99C59.6112 6.826 60.7318 6.68933 61.8798 6.58C62.9732 6.47067 64.0665 6.36133 65.1598 6.252C65.5425 6.19733 65.8978 6.17 66.2258 6.17C66.6085 6.17 67.0185 6.17 67.4558 6.17C67.7292 5.35 67.9752 4.53 68.1938 3.71C68.4672 2.89 68.7405 2.09733 69.0138 1.332C69.0138 1.27733 69.0138 1.25 69.0138 1.25C69.0685 1.25 69.0958 1.22266 69.0958 1.168C69.1505 1.05867 69.2598 0.949332 69.4238 0.839998C69.5878 0.675998 69.9158 0.648665 70.4078 0.757999C71.0092 0.867333 71.3918 1.05867 71.5558 1.332C71.7745 1.55067 71.8292 1.742 71.7198 1.906C71.5558 2.61667 71.3645 3.3 71.1458 3.956C70.9818 4.612 70.8178 5.29533 70.6538 6.006H70.7358C72.2118 5.95133 73.6878 5.89667 75.1638 5.842C76.6398 5.78733 78.1158 5.73267 79.5918 5.678H85.8238C86.3705 5.678 86.7805 5.70533 87.0538 5.76C87.5458 5.86933 87.9012 6.088 88.1198 6.416ZM82.26 19.126C82.3694 19.3447 82.3694 19.6727 82.26 20.11C82.0414 20.5473 81.8774 20.848 81.768 21.012C81.6587 21.176 81.522 21.3673 81.358 21.586C81.2487 21.75 81.1394 21.914 81.03 22.078C80.866 22.3513 80.702 22.5973 80.538 22.816C80.374 22.98 80.21 23.1713 80.046 23.39C79.9367 23.554 79.7454 23.7727 79.472 24.046C79.3627 24.1553 79.2807 24.2647 79.226 24.374L79.144 24.456C79.0347 24.5653 78.98 24.62 78.98 24.62L77.996 25.604C77.7227 25.8773 77.3947 26.178 77.012 26.506C76.6294 26.834 76.2194 27.1073 75.782 27.326H75.7C75.2627 27.5993 74.798 27.736 74.306 27.736C74.2514 27.736 74.1967 27.7633 74.142 27.818C74.0874 27.818 74.0327 27.818 73.978 27.818V27.736H73.896C72.8574 27.736 72.0647 27.2987 71.518 26.424C71.2447 25.8227 71.108 25.1667 71.108 24.456C71.108 23.7453 71.108 23.2533 71.108 22.98C71.3814 21.34 71.928 19.9187 72.748 18.716C73.6227 17.3493 74.798 16.584 76.274 16.42C76.5474 16.3107 76.8207 16.3107 77.094 16.42C77.6407 16.584 77.9414 16.8573 77.996 17.24C78.0507 17.568 78.0507 17.8687 77.996 18.142C77.7227 18.9073 77.3947 19.618 77.012 20.274C76.6294 20.93 76.11 21.4767 75.454 21.914C75.1807 22.078 74.9347 22.2147 74.716 22.324C74.4974 22.4333 74.2514 22.5427 73.978 22.652C73.8687 23.0893 73.7594 23.554 73.65 24.046C73.5954 24.538 73.6227 25.0027 73.732 25.44C73.7867 25.5493 73.814 25.6313 73.814 25.686C73.814 25.7407 73.8414 25.8227 73.896 25.932C74.1694 26.5333 74.634 26.6153 75.29 26.178C76.0007 25.686 76.7114 25.0573 77.422 24.292C78.1874 23.472 78.8434 22.6793 79.39 21.914C79.9914 21.094 80.3194 20.6293 80.374 20.52C80.4287 20.4107 80.456 20.356 80.456 20.356C80.5107 20.3013 80.5654 20.2193 80.62 20.11L81.358 18.962C81.4127 18.9073 81.4947 18.8527 81.604 18.798C81.8774 18.798 82.096 18.9073 82.26 19.126ZM76.028 18.388C75.7547 18.6613 75.454 19.0987 75.126 19.7C74.798 20.2467 74.5794 20.7387 74.47 21.176C74.9074 20.9027 75.2627 20.4927 75.536 19.946C75.864 19.3993 76.028 18.88 76.028 18.388Z" fill="#0CA296"/>
</svg>
